<mxfile host="65bd71144e" pages="1">
    <diagram id="UnQeQf4PPMaO_wAqGCnH" name="Page-1">
        <mxGraphModel dx="1064" dy="509" grid="1" gridSize="10" guides="1" tooltips="1" connect="1" arrows="1" fold="1" page="1" pageScale="1" pageWidth="827" pageHeight="1169" math="0" shadow="0">
            <root>
                <mxCell id="0"/>
                <mxCell id="1" parent="0"/>
                <mxCell id="10" style="edgeStyle=none;html=1;entryX=0;entryY=0.5;entryDx=0;entryDy=0;" edge="1" parent="1" source="2" target="8">
                    <mxGeometry relative="1" as="geometry">
                        <mxPoint x="240" y="730" as="targetPoint"/>
                    </mxGeometry>
                </mxCell>
                <mxCell id="2" value="" style="shape=actor;whiteSpace=wrap;html=1;" parent="1" vertex="1">
                    <mxGeometry x="140" y="681" width="40" height="60" as="geometry"/>
                </mxCell>
                <mxCell id="3" value="" style="sketch=0;points=[[0,0,0],[0.25,0,0],[0.5,0,0],[0.75,0,0],[1,0,0],[0,1,0],[0.25,1,0],[0.5,1,0],[0.75,1,0],[1,1,0],[0,0.25,0],[0,0.5,0],[0,0.75,0],[1,0.25,0],[1,0.5,0],[1,0.75,0]];outlineConnect=0;fontColor=#232F3E;gradientColor=#4D72F3;gradientDirection=north;fillColor=#3334B9;strokeColor=#ffffff;dashed=0;verticalLabelPosition=bottom;verticalAlign=top;align=center;html=1;fontSize=12;fontStyle=0;aspect=fixed;shape=mxgraph.aws4.resourceIcon;resIcon=mxgraph.aws4.dynamodb;" vertex="1" parent="1">
                    <mxGeometry x="550" y="740" width="78" height="78" as="geometry"/>
                </mxCell>
                <mxCell id="4" value="" style="sketch=0;pointerEvents=1;shadow=0;dashed=0;html=1;strokeColor=none;fillColor=#DF8C42;labelPosition=center;verticalLabelPosition=bottom;verticalAlign=top;align=center;outlineConnect=0;shape=mxgraph.veeam2.aws_s3;" vertex="1" parent="1">
                    <mxGeometry x="548" y="610" width="80" height="90" as="geometry"/>
                </mxCell>
                <mxCell id="6" style="edgeStyle=none;html=1;" edge="1" parent="1" source="5" target="4">
                    <mxGeometry relative="1" as="geometry"/>
                </mxCell>
                <mxCell id="7" style="edgeStyle=none;html=1;" edge="1" parent="1" source="5" target="3">
                    <mxGeometry relative="1" as="geometry"/>
                </mxCell>
                <mxCell id="5" value="" style="sketch=0;points=[[0,0,0],[0.25,0,0],[0.5,0,0],[0.75,0,0],[1,0,0],[0,1,0],[0.25,1,0],[0.5,1,0],[0.75,1,0],[1,1,0],[0,0.25,0],[0,0.5,0],[0,0.75,0],[1,0.25,0],[1,0.5,0],[1,0.75,0]];outlineConnect=0;fontColor=#232F3E;gradientColor=#F78E04;gradientDirection=north;fillColor=#D05C17;strokeColor=#ffffff;dashed=0;verticalLabelPosition=bottom;verticalAlign=top;align=center;html=1;fontSize=12;fontStyle=0;aspect=fixed;shape=mxgraph.aws4.resourceIcon;resIcon=mxgraph.aws4.app_runner;" vertex="1" parent="1">
                    <mxGeometry x="410" y="672" width="78" height="78" as="geometry"/>
                </mxCell>
                <mxCell id="9" style="edgeStyle=none;html=1;entryX=0;entryY=0.5;entryDx=0;entryDy=0;entryPerimeter=0;" edge="1" parent="1" source="8" target="5">
                    <mxGeometry relative="1" as="geometry"/>
                </mxCell>
                <mxCell id="8" value="" style="shape=image;verticalLabelPosition=bottom;labelBackgroundColor=default;verticalAlign=top;aspect=fixed;imageAspect=0;image=data:image/png,iVBORw0KGgoAAAANSUhEUgAAAR4AAACwCAMAAADudvHOAAAAgVBMVEX///8AAADDw8NRUVGSkpIiIiIxMTE9PT3JyclLS0v8/PzW1tbe3t7Ly8v5+fnt7e2jo6PT09O7u7vp6enj4+O2trZYWFja2tp4eHiMjIxycnItLS1fX1+AgIA4ODhCQkIXFxeenp4NDQ2urq5kZGQdHR2GhoZ0dHRqamoRERGYmJgIz/UfAAAJE0lEQVR4nO2d63qqOhCGSdW2UovQeqiHVu1ptd7/BW4yQStIDhMGkmeT78datkUIr0wmM5nEKAoKCgoKCupEsesGeK146roFXuvRdQO81k3iugU+axIeHoWSo+sWeK0X1w3wWsOl6xb4rPuV6xb4rOmb6xZ4rdGz6xb4rJ/UdQt81sfYdQt81oSF4bJcMXty3QSfNf503QKftWIhyyPXDQuRqFxT9uq6CT5r9OW6BT7rh01cN8FjpWzougkeK2MhEpUrYSxEonLtWIhE5XplA9dN8FhzxsKsn1QzFiJRueJfFiJRuRYsJHnkGjJ277oN/uqGsTDrJ9WUsb3rNnisDWMPrtvgr34YC3OiUqWM3bpug7/KGGMz143wVnmYzg6uG+GvdoztXLfBX72yEInKlYfp7MN1I7xVHqazretG+Kt31mUkOrnhapCvvb9B6/HvwujL5WE6g3fhL3sW4nIrxjVCN/Mshhe4nSm8xPrnQ/6ete11T0JcbyjeYT9CH+GbJ/LDGbzGTeEt83e8i3IDezrviAsWeJh1zasFnqKQCx5c3HP7m78jEy/t8Vg8Pcx6nprjeV8MEBqf8jRv/MJrxLU+8+O/i9dj6fl598R+FU1CXPGE53xZrDgey/DwGS5snk3/MHza+Fnv7JpUFeD54v9YmlcDPDDCMx8B8xGPUV9FjWc+QvcCZzXBA9ZiHD9t8mONyg2o8Twt7c2rER7RwZqto3kxvmlyPNE3/88qO9kMzwMzvfATP9Bs+EqPB55cK+/VDI+4/l5/HIwiDcsNWsAzsTWvhniiO37hH+1hO3YeL2nVAp7oaGleTfGI4GKuOWqFcXFt4IGP0cK8muIRnYrm1h9RA6RW8DzbmVdjPHxSRuPdEzMDPKkVPHx2xMK8muOBSEo5ohnwA8wL39vBE40ZLpwFEeCBUdcp1KzRgf8ZUfhOjadIEEEvia0wJ8Aj3IL08QB6mHKDlvCIGEj+KdaKAg88t7LOJd5jfUZbeKIt3nuR4EkU3v0T3SW2hifBmxcJHl6tI4kZPnT99rVawyOaiTIvGjwQcNYVuEMWA3n+9vBE6/zHX8wJiPCIpOx1yvuW/xpZbtAinghrXlR4JrXeHR4q7HRGm3gekeZFhUeMSiszfBBwoJdgU+MpVXjyGf69+QnI8IixcWl+WISr6HKDVvHADZuPwujwCO9+WV2wk7t7ldrFs0SZFx2eK+8OWYwF/jzt4hG/Mz0BIR6wa7Y5/fRY0xkZqWU84E1NzYsSD6R0T0kVYWv4IgV6PNVoeFb3S4lI8cCFiytDT42ZQz2rbTzRwXxwSIrnwrvzJpzKDZBqHQ/4jH9GJ6DFA/U7vDvW5YBUah/P1Ni8iPGcvPv+ohfCqn08ECgbZQ6J8RT+alHyYUh1gAd6RhPvBdPz2b25dCeECVuQ7e4G1HjqTDwxNC90+ZO2t70tDrTewrILPBAOGngOejyi7AcfiZ7VCR6Yf9J7L3o8YnBoXY/VFZ6Y/0lrXlA8NxibS4vnX8HReqVoN3iie5MPm9pzFZPKXLbV3R3hgVydblhPjUfkeHjtu/UGENR4pNMke/0zTo0HcjxrEXxZLtrqDE+mNy9iPKJKvwi5LEc+neGBMZq6NIIWjxgz8yJZCNhRcyZndYcH7l5pXqR4RMR1/HvpRUJDUdI80ZkXKR4ItYrxIPhNi0xzp3jgANVnSImnPJcDqVWbZZFd4oGiOkVKkxCPmAn8uxYEXxY7p3WK51k9QiPEA/HJxQytCL7wa6mo8aj9Z6r0XnR4+PR++VRQnYFPGXaLB4qTpN6LDI8IJsrVBlumfnTr1TGeqaqNVHhEMFFZgR1DcIGdCewYDxTVycyLCg8EE1crsLM6aDp1jQcecon3IsIDwURN9m1YY3I6dY4nkQ8OafBk0k4Y1lzgkvIIPNP5vJjTv/9eDNYf1Xs0wwPVAfW74BGWXtZWEIo+CVXviMCTFVYxFRnKKxsxxAOZ1VrzIsEDwYRk3cBTXbOVQuB5EGfmH8/dasiLYMvpUVM8sWxzBgo8IpiQhQ9rrHfH4zkWa8UmVTs2xQOphjrvRYBHBBPyBTewEhgxcYHHMzhNeaaV6mFjPBAh1twCAR64fcWUo8BnPu2Fx/PG9vV/N8cDd3H9iDfHs9b6JmF8xivJ8Xhe8o+n1noReJa13otouZt6ZAOpQ+PVDHg8UA+ySK85IPDA0O3Kg9AsltQsohWO33TBGx5PUdbI9t8V/4DBAwmY6jPYFA9spKGNqlCpQws8UTxfCELl2BuFZ1ZjXg3xrAy99rfS95dlg4drebzqXod6w7/Q4dp7NcMjZiZMMjob85u2xRPB6qjS/eHwQFxd/qgb4RF9ilE+EJE6NMETi+gqA2tKJpPipmaVbhCJh3ek5axDIzwDxActUocmBX0mJ92IJPYcHt3ZmXvW7OmBRpZO0ASPOpio6tOwm9LgeYXSmFfo6KcjkYjYFN3+7KtR3xOJ6PHyDA3w6IKJihJIHRrsWajEw93Ls7DVze5krjyfMvp84T+X5/XReKrm1QAPVJ8i5kFNU4dKPLxqiT8wYqhwcsTZu/ixenY0HhjlXgxA7PHA7geoTZUMU4dq45qmwprjj5f18G/6/PH4b726epLxeKAP+DMvdGVqLmif2BkLV4MBCWlt6hDR3+tkgScpmZfFxnwwMhWOGvkFQGapQ7d4wGzPj6ENHu6dIZhA138ZpQ4d44GiupN5fdnhEfUF+OpBUZepHgvwI4i+1Oxwe3e3Qe8ou/+LIsdvd1htsujhi/9v832Zu/yNb2p3x49wumcxz4/YVN70RamVZfRHW6tFsL0R3zYmmJdcS60D6bfSYF5KbYN5qRT/BvNSaRnMS6k0mJdS22BeKsXv4Vt3VVqGr/NRKg3mpdQ2mJdK+egnmJdCy2BeSqXBvJT6DOalUt79BPNSaBLMS6k0mJdS22BeKsXhe2aVWgbzUioN5qXUIpiXSjG2GqVnWgbzUupAuknW/08Dy+2a+iLDL+/rq5bBvJQ6BvNSaoCtU+yXEvutTnuhzHqj3H7oaLvNck+E/fq8nikJsZdSWTAvpYxXsPVUNqsBeqQkpDaUCgsKgoKCgoKo9R+iWFrpZGGCqwAAAABJRU5ErkJggg==;" vertex="1" parent="1">
                    <mxGeometry x="250" y="673" width="120" height="73.85" as="geometry"/>
                </mxCell>
                <mxCell id="11" value="" style="shape=image;verticalLabelPosition=bottom;labelBackgroundColor=default;verticalAlign=top;aspect=fixed;imageAspect=0;image=data:image/png,iVBORw0KGgoAAAANSUhEUgAAAOEAAADhCAMAAAAJbSJIAAAAkFBMVEX////u7u7t7e0AAAD5+fn09PT39/fy8vLv7+/+/v77+/sJCQnExMQwMDAzMzMrKyvm5uZhYWHU1NSxsbHLy8vd3d06OjqcnJyjo6MmJiZ6enpAQECIiIiUlJSCgoK7u7sRERFfX18fHx9WVlZLS0tvb28+Pj4QEBBpaWmOjo4YGBiXl5dISEhRUVF8fHysrKxrbNTvAAALZ0lEQVR4nO2daUPrKhCGCQkhwaqxbexibY/WHms9Xv//v7skYYYsELdoUZlvEng7T8IyQIKEgLFAGcekRKXQGFJSCkkCkiJMclIqIMNpeUJP6Ak9oSd0yq1PIqTKalqQVNMCq2mBOSrFwOIIDJMwJe4m9ZVzSorAw6QR4At85ikkxSqJJngnOSQxTKJOSr2NMKhpQcF3uvVlUp7QE3rC40t5QrvWB7v4L5MiHCwSyiJMghQRd5MYpDBMclNKoxrio6ATH5H3hloOSDkVLvu5hSf0hMd3yxN6wlevYjgwiA0glYBFqTIRqJQAUtIYcxGVQjikMMhEAhel0g9H3kMEk58q5ecWntATHl/KE/4AQhwZa1pgNS1l9fUCZcxxKRL/dNOobm0YfYKUU+Gyn1t4Qk94fLc84TsJ6Qe1qJNSAcG5MIPpMccZM86hY8yFM20BKRFk0louSSW98RHeNoyP9DN/Y6h1PKlfEHl7Qk/oCY8u5Ql/AKGbg9iQ4+Gr3oiI3/aShFNSGhUiQDpcMOmC1O+aWzjklif0hJ7w+G597ipGY3X5nW45JBWQ934I0VfOKSlHN4wGlPoFkbcn9ISe8OhSnvAHEA64XuCmlDa3Xgr9BCmnwmU/t/CEnvD4bnlCT+hPjfjwWoJTUv7UiKbWt4y8ewgDuvzhhGQejn40IeeH8Cnu0VLvXvW6hZ9jOUhIyTIMw7ldi+dZZdBFd91KY5Vn/PWEkfLOThiPJWB4y61a9PL0rLDzidUt8nAosyyWX084PavMSkjZtiAMVzYtmm7Cyhapza2pyhHmWO7LTo0YqZ+2nhqB/mfEdj4D+aeyPBDz+wLkSmVY6RcivurUCE2I1o6PDirHhbCuF8AjOuSBKdQSE3X9in39KgY3EEJ9rbSuoYKFk9ga465Vln9FONwOlzm9V5dHR4i82UuE2S0SnhBu09IMUcctmj7AI3y1W19JuA+1PaZWrTk8RNZxK8abNB6A8M3v07xEOKoBhotcWLWgs5mntOUWuVCX1sotSgMZ9NulbIRlMaYbXZewnCAV+m8gfKoThkvM1HELdA40aRJWw2lhZXpCg6JENp5m8QuEiZwW1aR4s5iBMM6m4+IZi+T1hM9h06b2G7/EJ9UkZPB0n8skLuhoB3KXs3FNKohGpW0yOeYlQuSjyUS71S7WIswn8DvhzSTHofIlQnrWInyCol1CCnnGtRtPgxRa6GmVkc8amvfbDN84CLhKHKVBlMz+HWpuRfNWsWmDkO0X9cuHFd5lI6EeeR7Ctm3wlnZGHsh8I2pSnB4aJcfteyajAA7DH/urCGXPdVKRKKHcUCyGYgmZda6io7XxEL+8wPMZSN4teJkw2/kMyRmKByiFw+m++LRDzLuKchDJKjES3wLhSl36U0pF/cWipenyKi09q8U0UDdrEeDeUPC6ChUN5zNgo72F+iOlMiiXyz4uNXoahndqHQwIp5jvDyn6xY2lmHJibb68LjylvYQjY8GMmQllFA8d76OANpreqKT/ZLUWU6OgtAtVo86rPyd4oSCMM0up8G9abx0de45Kr3oI/xnLrctOxkgIWrdZ9RBpCinnGZfV7S9onC7HeZ4/49/hpE54f1onTPi2WWz09wQSii4VB6Pw8rm4PLuEvw+FG32E+k42bRrbCHFs31dqCcHbKaN2XUdXVReQkjHMOS5LvbjqEE8UwZm8A6RWR1eq8ZBxde/Xmfwrxaa0SVPRdHwva0APIXaCbbsqmpmZMMfwNC6VoI97ihM5wJ2DK1WjK0Kb4K6eFusYONxP4yiKaRSk8KTnClAWE9sw3I6rzlldXeQEVxNz5foh433t0NJ+pU1kPbVMzKHQRVGVWQCD1LS4mfBLKjAqt6YZOHjXIoTOXuZQT3RHkDCQxSaCNVrhJqX6rS94is+shzD/YyW8p9y69IB3QTpCIAjZFW7hAyUNU1V3IXQ7lH+N4TLFkQJG2YJQDsJCvdem2uy6qara4lLUCXEIrwjN3UxlK2F9Rw7u3iVN8Pmc5IU/MPac7C9KuyntAn5nWid8RHWaqqHxClJab+6pIpel3oWyveJeNJ5h44SF1DxSgOWR7WiGooWU9kAEtLHHUju6s4hVthFxzKBWC60vVEWYGY+1EON7q2JhTGYxRm1JctVb8MK6yxNh5x3hTRK8CPijS7OWMtlkKFNZ/tMVCott4Bcbe0/8JULLKgY1BXoNy4llykNxjrHTcwoavIZQtmSVZaTjehKdIaEKzzVhoLsvO6Ex8ub0pLdcsaQUmAkDnrW6qG3hWjFpuzFLKZtYCFNVSx+JiZD3dIg9hIGwjxRg89RCGLSjqGLlpnTrP5VweV7ZKVj518hCSB7VjTITBmqAuT3TUih+fheZCSPDnKJtB8othIw3quOy9Kxwq93tN0wUIYKREItxA2EAo8XOJFp6ZSLE/rDPVsqLDiGN623jvgrUC7cg7t5VEy69fFRMkKqbYyKEYtdKvyTk27xa8kmhxyhDhBQO2ot7Ca0BadMq1w3LRwmpdcQPRLu1wLREL+NunvWivJEQip2Mq9RSSjajNS+kGda3Yr+gzFGMzMu8jzB6FWD4VDWMLiGNdPO/rFctvHPyAUTVM6TS1asp7DKYCbHYnAhWStEqeJgxOcIInP7OZMhBk4CLMqDfZR1CnNk/vo5QjtHWox7wVydCH/VA4i0kL/ZTzlg8XldDwS6vsrEzIKydGkH02LydJZyzfA0N/TRnCQvQoauHnHOeTfZl4L24TgumGiHEXpltTtGx6iYZ3uTkMGc9gxRRSVulnssILFIVctTYiIitY955GWC21wP15VERRXQi73RnK9CxWYUDI2NtS0z96slUE5baVl/VhArWaZrbybhq0yZQje3afFle54YZMLOuNHRtQW2ESeWrXkBWW5HEoq6WRS2ELDIj4gTEvI5xoOVEq0XIRX9s1bSdjTCIShQ9dMGGeZoZVre2sLgZnRoJZU0zrEVtM8xERgavV6zs+lqEVFgrtdHGNsJyrjRLuxu3LJ0smhrnc+yNWWgkLOp33loxPExipveAI37dVL1/mqbVQnP7GdLT8C12YyMMZK9yzhPD1nRxx69xffd+tYlqK/Dr0pZ5h1DOKPL5Bf7ubpJKgPouN0nmOu7995jjIMtIvl5frx9WK1L+/MsBadNG1tcLyHIjrJvvUTyezCeTUcIES/RkWm1up8y8jy/zPk9kKcoFkyNog5AmIuLJRl7eZMW2Fqcdr8oAwd6dW+yMWl+goIz2vl5AIhGVwVr/13k1QijH2lLwvLgOeS3fW6SmRe5+m32j7y2EsPXlvUZJz0sSzp0a8bZuprI91pVvcGqEZd/kBZt2tJx9CzrtXxCw2dVnujUsoXEX7hU2/y6E4/c9QhlesG9CuA1P3mewJ+Q8oZyRVqb7ZVxaNiRhJ4xvuDhPqLXoK7R0sPHW0YK2pfypEUNJOXrUw4BSv/t7C0/oCd2Q8oSe8BsQDrhe4KaUNjePevCnRrwo9bu+5XbILU/oCT3h8d3yp0a8SWrA8xnclPKnRjS1vmXk7Qk9oSc8upQntGt9sIv/MinrqRGvP59hwKMePkNKo7q59OBXMV6U+l1zC4fc8oSe0BMe360vW8VwYBAbQKp7aoTA/+qJ/+cz1v/Vs3NqBMNvUgIXpdIPR95DBJOfKuXnFp7QEx5fyhP+AEIcGZ163W5AKeOhDD/KNKpbG0afIOVUuOznFp7QEx7fLU/4TkL6Qa3uRxIuSAV4akTKYHrMccaMc+gYc+FM23RqhItSiaMvhQ4o9Qsib0/oCT3h0aU84Q8gdHMQG3I8HPB8BjelNKpLRz0MfGoEaEGSAxMCP3vyhJ7w+G55wncSGvpl+hYtf2rEkaQc3TAaUOoXRN6e0BN6wqNLeUJP6D7h/23gtGbE/krkAAAAAElFTkSuQmCC;" vertex="1" parent="1">
                    <mxGeometry x="268.75" y="750" width="82.5" height="82.5" as="geometry"/>
                </mxCell>
                <mxCell id="12" value="" style="shape=image;verticalLabelPosition=bottom;labelBackgroundColor=default;verticalAlign=top;aspect=fixed;imageAspect=0;image=data:image/png,iVBORw0KGgoAAAANSUhEUgAAAOEAAADhCAMAAAAJbSJIAAAAjVBMVEX///8hISEAAAAZGRkcHBxUVFQbGxv8/PxAQEAXFxf4+PgTExOrq6sQEBAEBAT5+flHR0fDw8Pa2trx8fE5OTnp6elycnLk5ORMTEyPj4+np6ff399sbGw8PDyzs7PR0dEpKSlbW1t6enqenp68vLyKiopjY2MzMzPS0tKampqOjo4nJyeCgoJvb295eXkyh0QXAAAOzklEQVR4nO2cCZeiOhOGoVgEIciqbLIogrS0///nfVlAQbG173W+6b4nz5kz060Q8mapVFXCCAKHw+FwOBwOh8PhcDgcDofD4XA4HA6Hw+FwOBwOh8PhcDgcDofD4XA4HA6Hw+FwOBwOh8P5yThm9ber8GdRIsHRFn+7Fn+QRFwGS9v5489Zvr3EhftamQtbMQrI3/78KcuoWb+5yNyG9LUrHVBl9c1PvyUTLRW8d5borUGS/RcHRi7K8jsffoejgSyK1hsVBh9giOLLCoWzoadZlZnfmowbN3hQ/srzNkkSDJWJQ1BFjPq2mejUCJES5e2LRbqkgcvIgG/NRgRio9mKUpZ1Xad1XZaloiihrW395iQbSGKXVYjpE+XiXQo70EVWpPZakQ4ZQnL3KYuw+cZzfJBlWVUlgq7r9F8VIxNEUS/ZZSkpnVanWX1fzCzpNxUegF5tAJLR/hvL4rIVDbF/EgKKZVkIGUwRivrLogaxi/x3KcSj1JJfV+hA//z80ABou+wYPL+JEShG3zv7rKqqLDPNeB/tqFkRLXO4zNtZrDpv9CoqnRX5UqMpEr5UB2LLK1HFk1EqXzZ6Pm1KtJ9+mhe4SBh5gjWpj2q/028yLVrkSwoPSJS0s5Od8Y+FbmCzAIdXn8MGwLW7eoICz+mRYXbh7QpX6HWFqS7vurTuig4vMkqnqHjUdS+uG8t5hUIGIhxHv79foYAb8UWFFW4M3TAsbCjOWUAEU8tRvjQbV408qxAPX0gmv75doa2+VKQbl7h5VUNu1lhdguefuyfdL6sW7F+YjQvtgcIMYNxE4WvV+Q7KS0XuwdJlsag/Dh9pqLSRjz+qJQtQoeGFXCGqv+ahQmFdjx9OrNm7Fb5UJMiosdVtWiBDUiV0gnOihF183HjCkojLIHW+LOOxwn9SnW/Binw2D22t/WhEUaKrGu67Jsr7JdTbuwIxlQb48RcF/HSFK9M22JqtYidTMd2j2casGh5VqiFZlJrUfVjCdxS+dcV/TWFeUOdDtkAKOwfblX2eOCPP1KuV8gSocbKHEn+2Qhz44r5Dsm8esTovmnrdS+cg4/HpOWsEa+VRGT9aoYcdbbDbCIlkouWbj+t8W+Rxib03mc3JVV49XDf+ssKv/dLIsg7BQsjBKBfCpiCB0+pomvtDKQEU9nrjbJ/XaE7h5uM+N/m8Ot/meZFbMIWy3AhtQd3QrF22Po5/8J91taE3fj5f8ucUrsG4u5FWZ/t/Vqj6ggnUhGzI0rfYF5Ys60hr7bSvYPfPFIaGNl+dxwqDzRePSvI8d5O7QJAp/Co+3PrCp1XjH3A8l7sHbHLwDamCXe5l/7jzc9d0RqEnGuXddbQ6sxHwwul8RCJnZS7vvsoUZLHYWqzNiZyxwmSfOUc3CbwlYdXPrhbcFHdZ5TYSie9FLBBGjb9UhPR5TmNGYQWoe1lhcCCpBeZwQHnXIZUIkkhzIjSErR8pTGGKRJ/kQXnWRRX6NIrkIz8ajZVKccrneSmmEH2Q9FqwcY+50xYyal9UGHQIx6akh2gdrM+b7w+4bgbIvo9oYmaaOxwrzFSwxAHZQH1mdm2dhg8RQCgsJ6azi9vmeZDIFIpq0xQnUSLZGtwjkL2mMNZxGGOEm9XGFGlSAqaeRYzDHtglq8VimZMQSJyklCfzcBXsmRIdQFtHfcVzlqBRQWrixFVuHv9pVzM1faBwGEkMuG8ZWp1prm1Bk3Aq65eVRjKO084PcNiDLtmGSp+mDXrjde3VDvufhlWPL1nSJIuqbEJr5xyRSXY6rt+atRDfpF8eK0TDBLDUlxW2MG4NmufQJxONduHVFOTokr6bU5gb2I7U47wCZke97uJ8wi1pSeT5+1EcgZ2BSHhGPw8jLwiSxHWqfYi+UHhnC0U0mN0FDdkn3uEaV28cRmegKzf3XxU6hiyhuzHX5xF1ashAWZBPBpNNRvzxeUKqt6WjolP0osIOVAmay8wietRwfAFJ0E0myufEmE4UxjjS9e8XN09i2VzsgNsZji2WbuIOnUiszvH53tX9arE8ya8p9Na2MkpA72YVyvLDNZkZL1bkAUQrnfMxyciQlUxRWdYoqh2zGs2VPJy5Z8rMehihRwq/3LcgCiXl9hNRFc0H3vFV4bIGEc6zF0U06VTacrUgbZqUkC1HCs3iixoxZhQeAR543l8qXN8pzOgkkh8lGS4KN1sk6g92X9lEVGWEu3DlOmK2bMeVc4wvasSY89qKf9SHJIkpTdy9ZdPvWYHRzritg0LHwj/oDyYUy+eSkvMqb0/RrQ/TPA2f5jxvdyZ59VQh3YeYKmR7YhQLDnceJLXFpyRiGuB4+z0Dr7M68wTO4R7s4WPs3dDKNMn8bVe+FQE/ULhws86m9Zyuh2QQDZtbIjJuIx2qUGY7pSTan3/wwfLJ+CdG2Ulz0oW0qdxlsMM+RTUz3P6NwtOMQi/7LCwcORhzCgWvBumiUZ1Ob6X/hkQNpA7zi3e1PeQW85b6EzVxRPvNER3Bc9unNf93ChcODgoQgpO9605zCok9H3ZD8XyciGAKZThvIup1z+9fe+BW2J+Tm0qwC5eUb+4LMhpyHPcvvPY+DPoXCsVbhZWGa2+ddiTNJ5yNB/bCqWEYq3d+KQ75yEfUqVXnt5jDNDgCaYkqLhyscBEoIenMAPAwTddPF8RvKRQnCpcpqPjBg5kkq59xGz4x3GFXW/Vvi2SaqVMroll7isNglzjg2O82N53Q6otahQ/8xRmEpSmgP6dwqSGyAXSxZVThozNFSdlbzFFowIwXa58DG6dzkYILa5fe+xlkqdIBWrtQEmvjRcJyKfjPjOk/V1ij6dw5f6UQL/90pMLoQcwRZApXGi3fmrOMoeXRLWjkY7uFGgAnEK5muXt2ZnGx/YZCeaTwbleY2HRj7HpV00wB9XCsUS+NFQouOykgzfSICTHzbPCC8QnrarqyZs+Ooj3cIb3hTmFMqiSNbCdVuBvdcroZdMSJnihUr6N0iDZV8d758aDZnIa1qLZujKdXPPFqHu1y30IVWiOFzCXWpn04saXWTVKDBlOjMUUN6FVRSVdFqbiPRc6yySJh3QxRcbzZodAebztRWCZkJvV0A52u4xqb1tTX8lgonQjLoB9FeBE7jQcd2UYeB8RU4PUDz1eZxLuB6jZRTNvTT0wNMnHaHdGTMJ81jnqfAr6BNsTYkLCmkX0mx8u27HyMGvpSH/XSQXcNgCtruh6wFWJkelyWlVTVu0jfrkLWwtiuuV46jevd05cV77MEoqE4Xx5Oipj3CKMc84nVxyij/UERYcgGqrLaD0VygWz5Me345IBLkEbh8LJ32qTqMtCz/ugTKJU3mVyO0gdRNhnTFZn8l9oeN8YDnx0TZOdeIM2CiOXHgyGdhcN1Bvi7PqLNhzwtQsiAIsqk/rCY2M+1LR0eMsl4IyC+Jyou5W/Si79KHtynCvZwqQxM0h++y9pTQmcsZ7+PN83+yEazk63H5m2KBUg3EMPQVckAafa6A8lbq5JuYPANw8CqjP64mwFavGTbmbKFLiFEtgXLUIcmVC1YX+1kQb2F/unWJeTu+l5UVWniw2ZlPAw2q06EGlIDKnbwa+Xm8HD4lUgru0PUtlH0ca6VbbGdD8Y7AKOxy/pzvf6sFX87mILNju5InLo+nnQa2LYjU7JI4p1m9WnKsJ1YHQC9Cet1FxG69bDEnWlKv7GVspvY1KLaDm1lQN0ZEjbbJot+XXgQlXyHxytOMLOndMNy4x7d188SJrPut9M4aBgNKLUR6dEdW2+TD8t4ufgfjL83+3GqRhtsQQoygXujGsO8w/+7OMJmx1wCYkkTG4dyUTaMrVj7L7xQc276k6IW9k5c7D2o4cVwed5MMvnXEUBbAevEQAhqkp5rroGN9zwz/POJ4UjXS7XcB8LyRHZJrPDi3sSPF8Xfg70lZ4Vp6pS8YSKqSFWvGyH+0+Dh57OBD+YeS6C4eJHuYg2uwUryx1+L+j8Qg/fJ8j06HCofda552e7w8LffeRPjh1LW/bY39g4bXzSMtMp7g7rZCenbXnj5e3jglOz9nZNIDkdgX9cfFsXUEcr3ng79K+S654Q4DCgW3jHyoVyjdaexw95L7FOH9wnpX8c+xQYHe9/EL1+4tZmkkROlQ8DQwX9AYhmT3XURGbVZYVuaVpnVNOAzO4rDjPD5QbcfzhLH161N3juzyMkfFH6Q/Ibap/UyHGj/+kVjg4P/7JKaEK36LJOYEVgurTJqeJpV++kk0AntsPUqfdog6+eV4wObjAmOrZUn+cUfT2Iown7b5zs0p/JlOUmKS3LF0QC6X74yelpJcv19Yk5v8F9dVVX5kB04HhqIZ1IF7v7Pv9H/JhapsqH51wsGWGIxivRd5Gc3/bg4wPRFp59NC2VkiFPG+1pYIjTRJHtegmi9+z8U+JM4Ohmlo/OU2FWdZAoDPB2h2V86TSEvab71nPqfxgtBVLXTZahqSmGdO5JX9BaLgKz7WW2HBmwPToDd1RRfKP82byBG2i6Lh9Mq5HwszVZvYlOTZZukZxdCTfKvyF6Xlirrtee5LlXp/BK3IKjDfZQfLDQarHJX+BZ2cQLZqunhG7NEhmpAE/oGPT8rKvvqgCy7rhXN3v34YCTXzm2Wtw3ZBOllGjI7iqxZCLZRRrrsw9DpMrFM8liWyduZomxHcdZu4RekPjKtbnMhK6HQwDKG/xrhrHxAVB7IGwDljryRXzRiYdfrT+3S3fb2hOQXjon/fRaO4uPlfRPtqqzDHceyHBJSO8NXVaUqEA2ZZbq3pF/Hs042VNJfYns2UYMjfKFa7x03soZ+JMulbBfjBYWiIssyDMuOMvfHz8IRSRt+tnkVH9a1diLH8o0CyMYdNqT6RJ6Fwi6L0/LpkcYfSOAcUkVZYwtS5eT1orw9fLSxud+Rcxyyyt5NUtrfKG3EynOz/SEtwzDtWjOr8C/1lu5xhl3sHN1fMu1eYhG4TpVhKueY/JeEcTgcDofD4XA4HA6Hw+FwOBwOh8PhcDgcDofD4XA4HA6Hw+FwOBwOh8PhcDgcDofD4XA4nD/M/wDlfPaFneg+QwAAAABJRU5ErkJggg==;" vertex="1" parent="1">
                    <mxGeometry x="413" y="750" width="75" height="75" as="geometry"/>
                </mxCell>
            </root>
        </mxGraphModel>
    </diagram>
</mxfile>